<mxfile host="app.diagrams.net" modified="2023-09-18T04:44:55.734Z" agent="Mozilla/5.0 (Windows NT 10.0; Win64; x64) AppleWebKit/537.36 (KHTML, like Gecko) Chrome/116.0.0.0 Safari/537.36" etag="8HxxhZv0cDD1enhZ-zl5" version="21.7.5" type="github">
  <diagram name="Page-1" id="5d7acffa-a066-3a61-03fe-96351882024d">
    <mxGraphModel dx="1216" dy="1714" grid="1" gridSize="10" guides="1" tooltips="1" connect="1" arrows="1" fold="1" page="1" pageScale="1" pageWidth="1100" pageHeight="850" background="#ffffff" math="0" shadow="0">
      <root>
        <mxCell id="0" />
        <mxCell id="1" parent="0" />
        <mxCell id="uEFSG5N0bZER1lfioCi_-5" value="Cliente" style="shape=umlActor;verticalLabelPosition=bottom;verticalAlign=top;html=1;outlineConnect=0;" parent="1" vertex="1">
          <mxGeometry x="43.15" y="-340" width="30" height="60" as="geometry" />
        </mxCell>
        <mxCell id="ZlicN3HeuMogZ3DCsWWC-2" value="" style="endArrow=none;html=1;rounded=0;entryX=0;entryY=0.5;entryDx=0;entryDy=0;exitX=0.5;exitY=0;exitDx=0;exitDy=0;exitPerimeter=0;" parent="1" source="uEFSG5N0bZER1lfioCi_-5" target="uEFSG5N0bZER1lfioCi_-7" edge="1">
          <mxGeometry width="50" height="50" relative="1" as="geometry">
            <mxPoint x="86.85" y="-174.9343065693431" as="sourcePoint" />
            <mxPoint x="246.85" y="-188" as="targetPoint" />
          </mxGeometry>
        </mxCell>
        <mxCell id="ZlicN3HeuMogZ3DCsWWC-18" value="" style="endArrow=none;html=1;rounded=0;exitX=0;exitY=0.413;exitDx=0;exitDy=0;exitPerimeter=0;" parent="1" source="uEFSG5N0bZER1lfioCi_-18" edge="1">
          <mxGeometry width="50" height="50" relative="1" as="geometry">
            <mxPoint x="306.84999999999997" y="-58" as="sourcePoint" />
            <mxPoint x="80" y="-320" as="targetPoint" />
            <Array as="points" />
          </mxGeometry>
        </mxCell>
        <mxCell id="ZlicN3HeuMogZ3DCsWWC-32" value="" style="swimlane;startSize=0;" parent="1" vertex="1">
          <mxGeometry x="100" y="-830" width="940" height="1810" as="geometry" />
        </mxCell>
        <mxCell id="ZlicN3HeuMogZ3DCsWWC-20" value="Realizar pagamento" style="ellipse;whiteSpace=wrap;html=1;" parent="ZlicN3HeuMogZ3DCsWWC-32" vertex="1">
          <mxGeometry x="130" y="670" width="116.85" height="59" as="geometry" />
        </mxCell>
        <mxCell id="ZlicN3HeuMogZ3DCsWWC-35" value="Pagar online" style="ellipse;whiteSpace=wrap;html=1;" parent="ZlicN3HeuMogZ3DCsWWC-32" vertex="1">
          <mxGeometry x="398" y="628" width="116.85" height="59" as="geometry" />
        </mxCell>
        <mxCell id="ZlicN3HeuMogZ3DCsWWC-36" value="Pagar presencial" style="ellipse;whiteSpace=wrap;html=1;" parent="ZlicN3HeuMogZ3DCsWWC-32" vertex="1">
          <mxGeometry x="397.5" y="729" width="116.85" height="59" as="geometry" />
        </mxCell>
        <mxCell id="ZlicN3HeuMogZ3DCsWWC-48" value="&amp;lt;&amp;lt;extend&amp;gt;&amp;gt;" style="endArrow=open;endSize=12;dashed=1;html=1;rounded=0;entryX=0.011;entryY=0.355;entryDx=0;entryDy=0;entryPerimeter=0;exitX=1;exitY=0.5;exitDx=0;exitDy=0;" parent="ZlicN3HeuMogZ3DCsWWC-32" source="ZlicN3HeuMogZ3DCsWWC-20" target="ZlicN3HeuMogZ3DCsWWC-35" edge="1">
          <mxGeometry width="160" relative="1" as="geometry">
            <mxPoint x="250" y="700" as="sourcePoint" />
            <mxPoint x="390" y="650" as="targetPoint" />
            <Array as="points">
              <mxPoint x="247" y="649" />
            </Array>
          </mxGeometry>
        </mxCell>
        <mxCell id="ZlicN3HeuMogZ3DCsWWC-51" value="extend" style="endArrow=open;endSize=12;dashed=1;html=1;rounded=0;entryX=0;entryY=0.5;entryDx=0;entryDy=0;exitX=1;exitY=0.5;exitDx=0;exitDy=0;" parent="ZlicN3HeuMogZ3DCsWWC-32" target="ZlicN3HeuMogZ3DCsWWC-36" edge="1" source="ZlicN3HeuMogZ3DCsWWC-20">
          <mxGeometry width="160" relative="1" as="geometry">
            <mxPoint x="230" y="720" as="sourcePoint" />
            <mxPoint x="337.5" y="740" as="targetPoint" />
            <Array as="points">
              <mxPoint x="246" y="760" />
            </Array>
          </mxGeometry>
        </mxCell>
        <mxCell id="uEFSG5N0bZER1lfioCi_-18" value="Realizar agendamento" style="ellipse;whiteSpace=wrap;html=1;" parent="ZlicN3HeuMogZ3DCsWWC-32" vertex="1">
          <mxGeometry x="130" y="410" width="116.85" height="59" as="geometry" />
        </mxCell>
        <mxCell id="uEFSG5N0bZER1lfioCi_-12" value="Consultar serviços" style="ellipse;whiteSpace=wrap;html=1;" parent="ZlicN3HeuMogZ3DCsWWC-32" vertex="1">
          <mxGeometry x="126.5" y="580" width="116.85" height="59" as="geometry" />
        </mxCell>
        <mxCell id="uEFSG5N0bZER1lfioCi_-16" value="Consultar barbeiro" style="ellipse;whiteSpace=wrap;html=1;" parent="ZlicN3HeuMogZ3DCsWWC-32" vertex="1">
          <mxGeometry x="130" y="491" width="116.85" height="59" as="geometry" />
        </mxCell>
        <mxCell id="ZlicN3HeuMogZ3DCsWWC-19" value="Consultar horários" style="ellipse;whiteSpace=wrap;html=1;" parent="ZlicN3HeuMogZ3DCsWWC-32" vertex="1">
          <mxGeometry x="130" y="330" width="116.85" height="59" as="geometry" />
        </mxCell>
        <mxCell id="ZlicN3HeuMogZ3DCsWWC-56" value="Sistema de pagamento online" style="ellipse;whiteSpace=wrap;html=1;" parent="ZlicN3HeuMogZ3DCsWWC-32" vertex="1">
          <mxGeometry x="680" y="628" width="116.85" height="59" as="geometry" />
        </mxCell>
        <mxCell id="ZlicN3HeuMogZ3DCsWWC-57" value="&amp;lt;&amp;lt;include&amp;gt;&amp;gt;" style="endArrow=open;endSize=12;dashed=1;html=1;rounded=0;exitX=1;exitY=0.5;exitDx=0;exitDy=0;entryX=0;entryY=0.5;entryDx=0;entryDy=0;" parent="ZlicN3HeuMogZ3DCsWWC-32" source="ZlicN3HeuMogZ3DCsWWC-35" target="ZlicN3HeuMogZ3DCsWWC-56" edge="1">
          <mxGeometry width="160" relative="1" as="geometry">
            <mxPoint x="706.85" y="652" as="sourcePoint" />
            <mxPoint x="690" y="670" as="targetPoint" />
          </mxGeometry>
        </mxCell>
        <mxCell id="ZlicN3HeuMogZ3DCsWWC-58" value="Consultar agendamento" style="ellipse;whiteSpace=wrap;html=1;" parent="ZlicN3HeuMogZ3DCsWWC-32" vertex="1">
          <mxGeometry x="700" y="420" width="116.85" height="59" as="geometry" />
        </mxCell>
        <mxCell id="uEFSG5N0bZER1lfioCi_-23" value="Gerenciar serviços" style="ellipse;whiteSpace=wrap;html=1;" parent="ZlicN3HeuMogZ3DCsWWC-32" vertex="1">
          <mxGeometry x="700" y="250" width="116.85" height="59" as="geometry" />
        </mxCell>
        <mxCell id="uEFSG5N0bZER1lfioCi_-21" value="Gerenciar usuarios" style="ellipse;whiteSpace=wrap;html=1;" parent="ZlicN3HeuMogZ3DCsWWC-32" vertex="1">
          <mxGeometry x="700" y="510" width="116.85" height="59" as="geometry" />
        </mxCell>
        <mxCell id="ZlicN3HeuMogZ3DCsWWC-34" value="&lt;b&gt;&lt;font style=&quot;font-size: 16px;&quot;&gt;Sistema de Agendamento do salão&lt;/font&gt;&lt;/b&gt;" style="text;html=1;align=center;verticalAlign=middle;resizable=0;points=[];autosize=1;strokeColor=none;fillColor=none;" parent="ZlicN3HeuMogZ3DCsWWC-32" vertex="1">
          <mxGeometry x="324.34999999999997" y="30" width="290" height="30" as="geometry" />
        </mxCell>
        <mxCell id="uEFSG5N0bZER1lfioCi_-7" value="Cadastrar no aplicativo" style="ellipse;whiteSpace=wrap;html=1;" parent="ZlicN3HeuMogZ3DCsWWC-32" vertex="1">
          <mxGeometry x="130" y="250" width="116.85" height="59" as="geometry" />
        </mxCell>
        <mxCell id="uEFSG5N0bZER1lfioCi_-9" value="Fazer login no sistema" style="ellipse;whiteSpace=wrap;html=1;" parent="ZlicN3HeuMogZ3DCsWWC-32" vertex="1">
          <mxGeometry x="397.49999999999994" y="370" width="116.85" height="59" as="geometry" />
        </mxCell>
        <mxCell id="ZlicN3HeuMogZ3DCsWWC-69" value="Gerenciar pagamentos" style="ellipse;whiteSpace=wrap;html=1;" parent="ZlicN3HeuMogZ3DCsWWC-32" vertex="1">
          <mxGeometry x="700" y="330" width="116.85" height="59" as="geometry" />
        </mxCell>
        <mxCell id="jTSxN9wWBSF_Roaz5n28-1" value="&amp;lt;&amp;lt;include&amp;gt;&amp;gt;" style="endArrow=open;endSize=12;dashed=1;html=1;rounded=0;exitX=0.5;exitY=0;exitDx=0;exitDy=0;entryX=0;entryY=0;entryDx=0;entryDy=0;" parent="ZlicN3HeuMogZ3DCsWWC-32" source="ZlicN3HeuMogZ3DCsWWC-19" target="uEFSG5N0bZER1lfioCi_-9" edge="1">
          <mxGeometry width="160" relative="1" as="geometry">
            <mxPoint x="350" y="330" as="sourcePoint" />
            <mxPoint x="510" y="330" as="targetPoint" />
          </mxGeometry>
        </mxCell>
        <mxCell id="jTSxN9wWBSF_Roaz5n28-3" value="&amp;lt;&amp;lt;include&amp;gt;&amp;gt;" style="endArrow=open;endSize=12;dashed=1;html=1;rounded=0;exitX=0.749;exitY=-0.027;exitDx=0;exitDy=0;exitPerimeter=0;entryX=0.337;entryY=1.051;entryDx=0;entryDy=0;entryPerimeter=0;" parent="ZlicN3HeuMogZ3DCsWWC-32" source="ZlicN3HeuMogZ3DCsWWC-20" edge="1" target="uEFSG5N0bZER1lfioCi_-9">
          <mxGeometry width="160" relative="1" as="geometry">
            <mxPoint x="280" y="330" as="sourcePoint" />
            <mxPoint x="440" y="330" as="targetPoint" />
          </mxGeometry>
        </mxCell>
        <mxCell id="jTSxN9wWBSF_Roaz5n28-5" value="&amp;lt;&amp;lt;include&amp;gt;&amp;gt;" style="endArrow=open;endSize=12;dashed=1;html=1;rounded=0;exitX=0.716;exitY=0.051;exitDx=0;exitDy=0;exitPerimeter=0;entryX=0.077;entryY=0.796;entryDx=0;entryDy=0;entryPerimeter=0;" parent="ZlicN3HeuMogZ3DCsWWC-32" source="uEFSG5N0bZER1lfioCi_-16" edge="1" target="uEFSG5N0bZER1lfioCi_-9">
          <mxGeometry width="160" relative="1" as="geometry">
            <mxPoint x="270" y="324.16999999999996" as="sourcePoint" />
            <mxPoint x="430" y="324.16999999999996" as="targetPoint" />
          </mxGeometry>
        </mxCell>
        <mxCell id="jTSxN9wWBSF_Roaz5n28-6" value="&amp;lt;&amp;lt;include&amp;gt;&amp;gt;" style="endArrow=open;endSize=12;dashed=1;html=1;rounded=0;exitX=1;exitY=0;exitDx=0;exitDy=0;" parent="ZlicN3HeuMogZ3DCsWWC-32" source="uEFSG5N0bZER1lfioCi_-12" edge="1" target="uEFSG5N0bZER1lfioCi_-9">
          <mxGeometry width="160" relative="1" as="geometry">
            <mxPoint x="260" y="324.16999999999996" as="sourcePoint" />
            <mxPoint x="420" y="324.16999999999996" as="targetPoint" />
          </mxGeometry>
        </mxCell>
        <mxCell id="jTSxN9wWBSF_Roaz5n28-10" value="&amp;lt;&amp;lt;include&amp;gt;&amp;gt;" style="endArrow=open;endSize=12;dashed=1;html=1;rounded=0;exitX=0.5;exitY=0;exitDx=0;exitDy=0;entryX=0;entryY=0.5;entryDx=0;entryDy=0;" parent="ZlicN3HeuMogZ3DCsWWC-32" source="uEFSG5N0bZER1lfioCi_-18" target="uEFSG5N0bZER1lfioCi_-9" edge="1">
          <mxGeometry width="160" relative="1" as="geometry">
            <mxPoint x="130" y="450" as="sourcePoint" />
            <mxPoint x="410" y="390" as="targetPoint" />
          </mxGeometry>
        </mxCell>
        <mxCell id="L98DPz5vtIBFfMyzg7vm-4" value="Pix" style="ellipse;whiteSpace=wrap;html=1;" vertex="1" parent="ZlicN3HeuMogZ3DCsWWC-32">
          <mxGeometry x="600" y="729" width="116.85" height="59" as="geometry" />
        </mxCell>
        <mxCell id="L98DPz5vtIBFfMyzg7vm-6" value="extend" style="endArrow=open;endSize=12;dashed=1;html=1;rounded=0;exitX=0.5;exitY=1;exitDx=0;exitDy=0;" edge="1" parent="ZlicN3HeuMogZ3DCsWWC-32" source="ZlicN3HeuMogZ3DCsWWC-56" target="L98DPz5vtIBFfMyzg7vm-4">
          <mxGeometry width="160" relative="1" as="geometry">
            <mxPoint x="600" y="759" as="sourcePoint" />
            <mxPoint x="753" y="750" as="targetPoint" />
          </mxGeometry>
        </mxCell>
        <mxCell id="L98DPz5vtIBFfMyzg7vm-7" value="Cartão de crédito" style="ellipse;whiteSpace=wrap;html=1;rotation=0;" vertex="1" parent="ZlicN3HeuMogZ3DCsWWC-32">
          <mxGeometry x="770" y="729" width="116.85" height="59" as="geometry" />
        </mxCell>
        <mxCell id="L98DPz5vtIBFfMyzg7vm-8" value="extend" style="endArrow=open;endSize=12;dashed=1;html=1;rounded=0;exitX=0.5;exitY=1;exitDx=0;exitDy=0;entryX=0.327;entryY=0.071;entryDx=0;entryDy=0;entryPerimeter=0;" edge="1" parent="ZlicN3HeuMogZ3DCsWWC-32" source="ZlicN3HeuMogZ3DCsWWC-56" target="L98DPz5vtIBFfMyzg7vm-7">
          <mxGeometry width="160" relative="1" as="geometry">
            <mxPoint x="763" y="689" as="sourcePoint" />
            <mxPoint x="706" y="762" as="targetPoint" />
          </mxGeometry>
        </mxCell>
        <mxCell id="L98DPz5vtIBFfMyzg7vm-11" value="&amp;lt;&amp;lt;include&amp;gt;&amp;gt;" style="endArrow=open;endSize=12;dashed=1;html=1;rounded=0;exitX=0.004;exitY=0.68;exitDx=0;exitDy=0;entryX=0;entryY=0;entryDx=0;entryDy=0;exitPerimeter=0;" edge="1" parent="ZlicN3HeuMogZ3DCsWWC-32" source="uEFSG5N0bZER1lfioCi_-23">
          <mxGeometry width="160" relative="1" as="geometry">
            <mxPoint x="280" y="335" as="sourcePoint" />
            <mxPoint x="507" y="384" as="targetPoint" />
          </mxGeometry>
        </mxCell>
        <mxCell id="L98DPz5vtIBFfMyzg7vm-13" value="&amp;lt;&amp;lt;include&amp;gt;&amp;gt;" style="endArrow=open;endSize=12;dashed=1;html=1;rounded=0;exitX=0;exitY=0.5;exitDx=0;exitDy=0;entryX=1;entryY=0.5;entryDx=0;entryDy=0;" edge="1" parent="ZlicN3HeuMogZ3DCsWWC-32" source="ZlicN3HeuMogZ3DCsWWC-58" target="uEFSG5N0bZER1lfioCi_-9">
          <mxGeometry width="160" relative="1" as="geometry">
            <mxPoint x="720" y="310" as="sourcePoint" />
            <mxPoint x="527" y="404" as="targetPoint" />
          </mxGeometry>
        </mxCell>
        <mxCell id="L98DPz5vtIBFfMyzg7vm-14" value="&amp;lt;&amp;lt;include&amp;gt;&amp;gt;" style="endArrow=open;endSize=12;dashed=1;html=1;rounded=0;exitX=0;exitY=0.5;exitDx=0;exitDy=0;entryX=0.962;entryY=0.74;entryDx=0;entryDy=0;entryPerimeter=0;" edge="1" parent="ZlicN3HeuMogZ3DCsWWC-32" source="uEFSG5N0bZER1lfioCi_-21" target="uEFSG5N0bZER1lfioCi_-9">
          <mxGeometry width="160" relative="1" as="geometry">
            <mxPoint x="730" y="320" as="sourcePoint" />
            <mxPoint x="537" y="414" as="targetPoint" />
          </mxGeometry>
        </mxCell>
        <mxCell id="L98DPz5vtIBFfMyzg7vm-16" value="" style="endArrow=none;html=1;rounded=0;exitX=1;exitY=0.5;exitDx=0;exitDy=0;" edge="1" parent="ZlicN3HeuMogZ3DCsWWC-32" source="uEFSG5N0bZER1lfioCi_-21">
          <mxGeometry width="50" height="50" relative="1" as="geometry">
            <mxPoint x="910" y="560" as="sourcePoint" />
            <mxPoint x="960" y="510" as="targetPoint" />
          </mxGeometry>
        </mxCell>
        <mxCell id="ZlicN3HeuMogZ3DCsWWC-53" value="" style="endArrow=none;html=1;rounded=0;entryX=0;entryY=0.5;entryDx=0;entryDy=0;" parent="1" target="ZlicN3HeuMogZ3DCsWWC-20" edge="1">
          <mxGeometry width="50" height="50" relative="1" as="geometry">
            <mxPoint x="70" y="-260" as="sourcePoint" />
            <mxPoint x="136.85" y="-183" as="targetPoint" />
          </mxGeometry>
        </mxCell>
        <mxCell id="uEFSG5N0bZER1lfioCi_-6" value="Administrador" style="shape=umlActor;verticalLabelPosition=bottom;verticalAlign=top;html=1;outlineConnect=0;" parent="1" vertex="1">
          <mxGeometry x="1070.0000000000002" y="-360" width="30" height="60" as="geometry" />
        </mxCell>
        <mxCell id="ZlicN3HeuMogZ3DCsWWC-62" value="" style="endArrow=none;html=1;rounded=0;entryX=1;entryY=0.5;entryDx=0;entryDy=0;" parent="1" source="uEFSG5N0bZER1lfioCi_-6" target="ZlicN3HeuMogZ3DCsWWC-58" edge="1">
          <mxGeometry width="50" height="50" relative="1" as="geometry">
            <mxPoint x="1060" y="-280" as="sourcePoint" />
            <mxPoint x="1116.8500000000001" y="-238" as="targetPoint" />
          </mxGeometry>
        </mxCell>
        <mxCell id="ZlicN3HeuMogZ3DCsWWC-65" value="" style="endArrow=none;html=1;rounded=0;entryX=1;entryY=1;entryDx=0;entryDy=0;exitX=0;exitY=0.3333333333333333;exitDx=0;exitDy=0;exitPerimeter=0;" parent="1" source="uEFSG5N0bZER1lfioCi_-6" target="uEFSG5N0bZER1lfioCi_-23" edge="1">
          <mxGeometry width="50" height="50" relative="1" as="geometry">
            <mxPoint x="1050" y="-270" as="sourcePoint" />
            <mxPoint x="1096.8500000000001" y="-300" as="targetPoint" />
          </mxGeometry>
        </mxCell>
        <mxCell id="ZlicN3HeuMogZ3DCsWWC-63" value="" style="endArrow=none;html=1;rounded=0;exitX=0.991;exitY=0.66;exitDx=0;exitDy=0;exitPerimeter=0;" parent="1" source="ZlicN3HeuMogZ3DCsWWC-69" edge="1">
          <mxGeometry width="50" height="50" relative="1" as="geometry">
            <mxPoint x="611.85" y="-398" as="sourcePoint" />
            <mxPoint x="1050" y="-350" as="targetPoint" />
            <Array as="points" />
          </mxGeometry>
        </mxCell>
        <mxCell id="ZlicN3HeuMogZ3DCsWWC-52" value="" style="endArrow=none;html=1;rounded=0;entryX=0;entryY=0.5;entryDx=0;entryDy=0;" parent="1" source="uEFSG5N0bZER1lfioCi_-5" target="ZlicN3HeuMogZ3DCsWWC-19" edge="1">
          <mxGeometry width="50" height="50" relative="1" as="geometry">
            <mxPoint x="86.85" y="-178" as="sourcePoint" />
            <mxPoint x="136.85" y="-228" as="targetPoint" />
          </mxGeometry>
        </mxCell>
        <mxCell id="ZlicN3HeuMogZ3DCsWWC-54" value="" style="endArrow=none;html=1;rounded=0;exitX=1;exitY=1;exitDx=0;exitDy=0;exitPerimeter=0;" parent="1" source="uEFSG5N0bZER1lfioCi_-5" target="uEFSG5N0bZER1lfioCi_-16" edge="1">
          <mxGeometry width="50" height="50" relative="1" as="geometry">
            <mxPoint x="86.85" y="-158" as="sourcePoint" />
            <mxPoint x="136.85" y="-208" as="targetPoint" />
          </mxGeometry>
        </mxCell>
        <mxCell id="ZlicN3HeuMogZ3DCsWWC-55" value="" style="endArrow=none;html=1;rounded=0;entryX=0.2;entryY=0.117;entryDx=0;entryDy=0;entryPerimeter=0;exitX=1;exitY=1;exitDx=0;exitDy=0;exitPerimeter=0;" parent="1" source="uEFSG5N0bZER1lfioCi_-5" target="uEFSG5N0bZER1lfioCi_-12" edge="1">
          <mxGeometry width="50" height="50" relative="1" as="geometry">
            <mxPoint x="86.85" y="-158" as="sourcePoint" />
            <mxPoint x="136.85" y="-208" as="targetPoint" />
          </mxGeometry>
        </mxCell>
        <mxCell id="L98DPz5vtIBFfMyzg7vm-12" value="&amp;lt;&amp;lt;include&amp;gt;&amp;gt;" style="endArrow=open;endSize=12;dashed=1;html=1;rounded=0;exitX=0;exitY=0.5;exitDx=0;exitDy=0;" edge="1" parent="1" source="ZlicN3HeuMogZ3DCsWWC-69">
          <mxGeometry width="160" relative="1" as="geometry">
            <mxPoint x="810" y="-530" as="sourcePoint" />
            <mxPoint x="610" y="-436" as="targetPoint" />
          </mxGeometry>
        </mxCell>
      </root>
    </mxGraphModel>
  </diagram>
</mxfile>
